<svg
    width="1025"
    height="347"
    viewBox="0 0 1025 347"
    fill="none"
    xmlns="http://www.w3.org/2000/svg"
  >
    <path
      d="M282.477 163.669C279.393 163.577 276.285 163.962 273.299 164.85C227.192 175.934 181.492 188.95 136.887 205.087C103.559 217.005 71.0378 231.686 41.5953 251.446C29.6276 259.502 18.0188 268.086 7.12385 277.549C4.54912 279.814 1.71374 282.197 0.998535 285.772C4.47919 307.272 24.9571 318.857 42.6464 327.843C71.7075 341.215 104.462 348.889 136.503 345.266C126.967 337.162 113.712 335.876 103.627 328.702C99.5268 325.627 99.4332 320.096 98.3366 315.591C88.4906 317.545 79.1438 321.312 69.3932 323.576C78.3809 318.046 88.1566 313.969 97.502 309.107C147.471 287.678 201.491 278.452 255.059 271.111C292.393 267.035 330.514 265.748 366.632 254.473C363.699 246.369 362.221 234.476 351.755 233.212C329.25 221.461 318.477 197.243 305.508 176.791C300.752 168.532 291.729 163.948 282.477 163.669Z"
      fill="white"
    />
    <path
      d="M744.756 163.701C737.608 163.592 730.468 165.693 725.354 170.904C718.13 178.436 713.934 188.161 708.403 196.861C700.488 210.638 690.263 223.416 676.721 231.997C673.241 234.286 667.949 233.856 665.875 238.027C662.776 243.128 660.794 248.899 659.721 254.738C695.887 265.512 733.793 266.655 771.007 271.303C830.035 278.74 889.732 289.561 943.515 316.139C948.069 318.618 952.717 321.095 957.271 323.646C947.473 321.119 937.842 317.925 928.139 315.112C926.542 319.975 926.373 326.101 921.605 329.152C911.664 335.85 898.673 337.093 889.662 345.221C904.967 347.271 920.484 345.84 935.598 343.004C965.017 337.283 995.008 326.342 1016.49 304.651L1016.75 304.746C1021.47 298.381 1024.04 290.873 1025 283.031C990.574 251.162 948.951 227.778 905.3 211.068C856.165 192.119 805.435 177.602 754.322 165.136C751.26 164.257 748.006 163.751 744.756 163.701V163.701Z"
      fill="white"
    />
    <path
      d="M513.063 0.983613C510.995 0.906205 508.933 2.20294 508.551 5.05137C500.064 33.0113 492.51 61.9253 476.489 86.7627C470.72 95.9158 462.397 103.185 453.004 108.453C430.308 121.42 404.993 128.594 380.199 136.365C376.289 137.39 373.119 139.941 370.305 142.706C373.166 145.089 376.144 147.521 379.839 148.617C406.492 157.127 434.099 164.565 457.963 179.748C472.1 188.473 480.373 203.488 487.287 218.076H487.5C496.345 238.432 502.377 259.79 508.862 280.957C510.698 287.059 518.018 283.507 518.137 278.478C523.573 258.17 530.436 238.313 537.994 218.743L537.47 217.339L539.115 216.861C543.597 209.186 547.125 200.916 552.752 193.932C559.641 184.421 569.845 178.224 580.001 172.765C583.697 171.001 587.44 169.236 591.183 167.496C608.944 160.131 627.322 154.458 645.679 148.809C649.303 147.212 655.336 146.116 654.287 140.848C650.95 138.059 646.802 136.581 642.749 135.317C618.623 127.952 594.14 120.658 572.207 107.953C562.79 102.614 554.682 95.0801 549.008 85.8793C533.464 61.2326 525.862 32.7963 517.613 5.17009C517.208 2.51235 515.131 1.06107 513.063 0.983613H513.063Z"
      fill="white"
    />
  </svg>